<?xml version="1.0" encoding="UTF-8"?><svg xmlns="http://www.w3.org/2000/svg" xmlns:xlink="http://www.w3.org/1999/xlink" version="1.1" id="Layer_1" x="0px" y="0px" viewBox="0 0 128 128" xml:space="preserve"><style type="text/css">.st0{fill:#FFFFFF;}</style><path d="M87.5 128h-47C18.1 128 0 109.9 0 87.5v-47C0 18.1 18.1 0 40.5 0h47C109.9 0 128 18.1 128 40.5v47c0 22.4-18.1 40.5-40.5 40.5z"/><path class="st0" d="M69 98.5c-.7 0-1.2.1-1.7.1H47.6c-13.5 0-24.7-8.9-27.7-21.9C17 64 23.4 50.8 35.1 45.3c.4-.2.8-.4 1.4-.8-2.9-2.5-5.6-5-8.4-7.4-2.8-2.4-5.6-4.9-8.6-7.5.6-.1.9-.2 1.2-.2 5.8 0 11.6-.1 17.3 0 .8 0 1.7.4 2.3.9 9.2 7.9 18.4 15.9 27.6 23.9.4.3.8.5 1.2.8-.1.2-.2.4-.2.5h-1.8c-6.5 0-12.9-.1-19.4 0-6.1.2-10.7 2.8-13.7 8.2-4.5 8.3.6 19.5 9.8 21.3 3.1.6 6.4.4 9.5.6.5 0 1.1.1 1.5.4l13.5 11.7c.2.1.4.4.7.8z" fill="#FFF"/><path class="st0" d="M108.6 98.5h-3.5c-5 0-10 .1-15 0-.8 0-1.8-.3-2.5-.9-9.4-8.1-18.7-16.2-28.1-24.3-.2-.1-.3-.4-.6-.8.7 0 1.3-.1 1.8-.1h19.4c6.1 0 10.8-2.6 13.8-8.1 4.2-7.8.2-17.8-8.1-20.8-3.1-1.1-6.3-1.1-9.4-1-1.9.1-3.4-.4-4.9-1.7-3.7-3.5-7.7-6.8-11.5-10.2-.3-.2-.6-.4-1.1-.8.5-.2.7-.4.8-.4 7.8 0 15.5 0 23.3.1 5.3.1 9.9 2 14.2 5.1 5.8 4.2 9.4 9.8 11 16.7 1.3 5.8.7 11.5-1.6 17-2.6 6-6.8 10.6-12.6 13.7-.4.2-.8.3-1.2.5-.3.2-.6.4-1.3.8 5.7 5.2 11.2 10 17.1 15.2z" fill="#FFF"/><metadata><rdf:RDF xmlns:rdf="http://www.w3.org/1999/02/22-rdf-syntax-ns#" xmlns:rdfs="http://www.w3.org/2000/01/rdf-schema#" xmlns:dc="http://purl.org/dc/elements/1.1/"><rdf:Description about="https://iconscout.com/legal#licenses" dc:title="decred" dc:description="decred" dc:publisher="Iconscout" dc:date="2018-01-14" dc:format="image/svg+xml" dc:language="en"><dc:creator><rdf:Bag><rdf:li>Icon Mafia</rdf:li></rdf:Bag></dc:creator></rdf:Description></rdf:RDF></metadata></svg>